# xmcd CD database file
#
# Track frame offsets:
#	150
#	20930
#	36675
#	53247
#	69600
#	86218
#	104059
#	123802
#	136852
#	155867
#
# Disc length: 2197 seconds
#
# Revision: 0
# Processed by: cddbd v1.5.2PL0 Copyright (c) Steve Scherf et al.
# Submitted via: CDex 2.09
#
DISCID=9a08930a
DTITLE=Amaray - Amaray
DYEAR=1900
DGENRE=Salsa
TTITLE0=Aprovecha
TTITLE1=No Soy Don Juan
TTITLE2=Relampaga
TTITLE3=Comunicate
TTITLE4=Por Que Habalamos
TTITLE5=Hoy Quiero Hablar De Ti
TTITLE6=Alfonsina Y El Mar
TTITLE7=Eres
TTITLE8=Loco Por Tus Besos
TTITLE9=Se Me Ocurrio El Sabado
EXTD=
EXTT0=
EXTT1=
EXTT2=
EXTT3=
EXTT4=
EXTT5=
EXTT6=
EXTT7=
EXTT8=
EXTT9=
PLAYORDER=
